<?xml version="1.0" encoding="UTF-8"?>
<svg id="Lag_1" data-name="Lag 1" xmlns="http://www.w3.org/2000/svg" viewBox="0 0 227.97 177.13">
  <defs>
    <style>
      .cls-1, .cls-2 {
        fill: #f2c043;
        stroke: #f2c043;
      }

      .cls-1, .cls-2, .cls-3, .cls-4, .cls-5, .cls-6, .cls-7 {
        stroke-miterlimit: 10;
      }

      .cls-2, .cls-3, .cls-6 {
        stroke-linecap: round;
      }

      .cls-3, .cls-7 {
        fill: #fff;
        stroke: #fff;
      }

      .cls-4 {
        fill: #6d591d;
      }

      .cls-4, .cls-5 {
        stroke: #cea53a;
      }

      .cls-5 {
        fill: #cea53a;
      }

      .cls-6 {
        fill: #ac3022;
        stroke: #ac3022;
      }
    </style>
  </defs>
  <path class="cls-1" d="M186.58,16.5v102.61c0,32.03-26.16,57.89-58.19,57.51l-69.12-.81c-32.57-.38-58.77-26.89-58.77-59.46V16.5c13.27,0,26.54,0,39.81,0,35.01,0,70.01,0,105.02,0,13.75,0,27.5,0,41.25,0Z"/>
  <ellipse class="cls-4" cx="93.54" cy="16.5" rx="93.04" ry="16"/>
  <path class="cls-2" d="M186.58,32.5c4.07-4.25,12.33-5.71,17.65-8.23,5.95-2.82,11.07-4.39,13.72-5.11,1.82-.49,3.75-.49,5.52.14,2.65.95,5.44,3.34,3.17,9.4-1.42,3.79-4.12,6.99-7.58,9.08-5.49,3.32-11.93,4.38-18.01,6.3-5.67,1.79-11.43,4.66-14.43,9.8"/>
  <path class="cls-5" d="M186.58,100.37c11.91-5.75,26.38-16.87,32.71-28.49,6.33-11.62,9.39-30.59,7.75-43.72-4.11,6.54-9.51,10.52-15.03,12.74-.39,15.87-13.53,33.25-25.43,43.76"/>
  <path class="cls-6" d="M50.71,122.32l37.37-58.09c2.39-3.71,7.8-3.73,10.22-.04l38.04,58.09c2.65,4.05-.25,9.43-5.09,9.43H55.83c-4.82,0-7.73-5.33-5.12-9.38Z"/>
  <ellipse class="cls-3" cx="92.55" cy="91.81" rx="2.93" ry="22.77"/>
  <circle class="cls-7" cx="92.55" cy="123.02" r="1.82"/>
</svg>