<?xml version="1.0" encoding="UTF-8"?>
<svg id="Lag_1" xmlns="http://www.w3.org/2000/svg" version="1.1" viewBox="0 0 600 600">
  <!-- Generator: Adobe Illustrator 29.8.2, SVG Export Plug-In . SVG Version: 2.1.1 Build 3)  -->
  <defs>
    <style>
      .st0, .st1, .st2, .st3, .st4, .st5, .st6, .st7, .st8 {
        stroke-miterlimit: 10;
      }

      .st0, .st1, .st2, .st3, .st8 {
        stroke: #1e1e1c;
      }

      .st0, .st3, .st4, .st8 {
        fill-opacity: .5;
      }

      .st0, .st4 {
        fill: #9e9d9c;
      }

      .st1, .st7 {
        fill: none;
      }

      .st2, .st6 {
        fill: #432919;
      }

      .st3 {
        fill: #cfcece;
      }

      .st4 {
        stroke: #010101;
      }

      .st5 {
        fill: #25180e;
        stroke: #1c130d;
      }

      .st6 {
        stroke: #25180e;
        stroke-width: 2px;
      }

      .st7 {
        stroke: #fff;
        stroke-linecap: round;
      }

      .st8 {
        fill: #898a88;
      }
    </style>
  </defs>
  <g id="Kaffekop">
    <path class="st4" d="M180.3,168.3c50.3-17.3,132.6-13.9,185.2-6.7,15.8,2.7,53.7,11.2,31.2,17-36.4,9.5-167.4,13-167.4,13,1.1-.6-66.4,2.6-75.6-6.4-7-6.9,26.7-16.9,26.7-16.9h0Z"/>
    <path class="st3" d="M152.7,191.4l1-6.2,9.3,3.7,18.3,2.5,23.9.3h24.1c0,0,45.8-1.8,45.8-1.8l41.9-1.5,42.1-3.3,25.2-4,19.4-5.6,1.6,11.3c1.3,9,1.5,18.2.4,27.2l-1.5,13.9c1.3,3.4-9.7,34.9-17.6,51.1-5.2,10.6-10.8,19.4-17.9,28.1-1.4,1.7-2.9,3.2-4.4,4.6-5.2,4.8-11.3,8.6-17.8,11.4-3.3,1.4-7.3,3.2-8.3,3.7-4,2-8.3,3.4-12.8,4,0,0,0,0-.1,0-11.4,1.5-28.6,3.7-43.1,6s-16.9,2-25.4,1.9-14.4.7-27.4-2.1c0,0-4-1.8-9.1-4.3-7.8-3.8-18.2-9.2-21.4-12.7-2.7-2.9-5.1-7.2-6.7-10.2-1.8-3.4-1.6-3.5-3.7-6.7-1.6-2.4-5.4-8.1-6.5-9.7-.6-.8-1.2-1.8-1.8-2.6-1.1-1.8-2.3-3.5-3.4-5.2-.6-.9-3.2-6-5.5-10.5s-4.5-9.9-6.2-15-2.3-7.3-2.5-8.1,0,0,0,0c-.3-1.1-5.8-24.4-7.6-38-1.1-8.3-2.2-22.2-2.2-22.2,0,0,0-7.8.4-6.9"/>
    <path class="st3" d="M406.8,197.9c.5,0,.8-.5,1.8-1.4,3-3,7.4-6.1,11.4-8,11.7-5.8,24-9.9,36.4-13.8,4.2-1.3,8.4-2.9,12.7-3.7,2.4-.6,5.7-.8,4.9-3.7-3.6-8.8-15.6-8.4-23.7-7-12.7,2.3-24.9,6.5-36.6,12.4s-10.2,2.9-10.2,2.9c.2.8,1.8,11.6,1.8,12.2l1.5,10Z"/>
    <path class="st0" d="M456.8,174.9c-.5,4.9-3.7,9-6.9,12.7-3.3,3.8-6.6,7.5-10.1,11.1-3.9,4.1-7.9,8-12.6,11.1-2.8,1.8-5.7,3.4-8.7,4.9-4.6,2.3-8.7,3.5-13.2,5.8-.4.2-.3,1.8-.5,2.2-.2.3-.6,4.8-.7,5.1-.2,5.4-2.2,12.2-2.2,12.2,5.9.5,11-2.5,16.2-5.5,18.3-10.7,34.1-25.5,46.6-42.6,1.4-2,2.8-4,4-6.1,2-3.7,3.3-7.8,3.7-12s0-2.3-.2-3.4c-1.3,0-2.6.5-3.9,1-3.8,1.4-7.4,2.6-11.4,3.4Z"/>
    <path class="st1" d="M405.2,189.5"/>
    <polygon class="st0" points="223.9 326.7 219.8 332.5 225.8 335.3 234 337.7 243.1 338.8 251.3 338.8 265 338.8 281.7 336.9 305.3 333.5 324.9 330.9 337.7 326.9 355.5 318.2 358.5 316.2 355.5 312.5 347.2 310.3 335.6 308.9 322.4 307.8 312.1 308.7 292.2 310.6 278.1 310.7 262.8 312.5 249.8 315.1 240.5 317.1 233.3 320.6 223.9 326.7"/>
    <path class="st8" d="M189.3,327.6l3-4.3,6-3.5,11.8,7.8,15.6,7.7,13.5,3.3,17.1.2,16.3-.7,21.1-2.9,24.9-3.2,14.3-2.7,13-6.1,12.5-7.1,5.3-4.3,4.4-4.6,9.5,2.5h0c3.6,2.4,6.2,6.2,7.1,10.4l.6,2.9-5.2,3.8-9.9,4.7-10.2,3.9-14.1,3.5-11.6,3.6-17.4,2.5-17.7,1.1h-74.4l-14.1-2.5-13.2-2.8-6.1-4.4-2.2-3.9v-5Z"/>
    <path class="st3" d="M149.8,315.2c11.7-6.9,25-11.1,38.5-12,2.5,6.1,5.9,11.8,10.2,16.8-7.6-.2-10.3,11.5-5.2,17.2s13.5,6.5,21.1,7c54.9,3.5,112.3,6.6,162.6-15.8,2.8-1.2,5.7-2.7,7.1-5.4,1.9-3.7,0-8.4-3.2-11s-7.4-3.7-11.4-4.6c.4-7.3,7-13,14.1-14.7s14.5-.2,21.6,1.3c20.5,4.4,43.2,11,53.1,29.5,1.5,2.9,2.7,6.2,2,9.4-1.2,5.4-6.9,8.4-12.1,10.3-26.9,10-55.8,12.9-84.3,15.7-42.3,4.2-84.8,8.2-127.4,7.6-16.7-.3-113,.2-110.6-25.8.5-5.3,4.2-9.7,8-13.4,4.8-4.6,10.2-8.7,15.9-12.1Z"/>
    <path class="st2" d="M274.8,316.1c7.7-1,15.6,1.1,23.1-.7,4.7-1.2,9-3.9,13.8-4.5s10.7,1.9,11.1,6.7c.3,3.5-2.3,6.5-5.1,8.6-3.6,2.7-7.8,4.8-12.2,4.9-5.4.1-10.5-2.5-15.7-4-7.6-2.2-15.8-1.9-23.2.8-1.8.7-3.6,1.5-5.5,1.6s-4.1-.4-5.1-2c-4-6,15.3-10.8,18.9-11.3Z"/>
    <path class="st7" d="M385.4,197.9c.6,33.3-14.9,64.8-32.6,93"/>
  </g>
  <ellipse id="Kaffebønneecclipse3" class="st6" cx="158" cy="408.7" rx="18.5" ry="28.8" transform="translate(-242.7 231.4) rotate(-45)"/>
  <path class="st5" d="M177.8,428.6c-.1-7.5-3.4-14.6-7.7-20.9-2.7-3.9-5.9-7.5-9.8-10.3s-8.7-4.6-13.5-4.6c-1.1,0-2.4.2-2.9,1.2-.5.9.2,2.1,1.1,2.7s2.1.7,3.1.8c7.6,1.2,13.9,6.6,17.9,12.9,4,6.3,6.1,13.5,8.2,20.7.6-.3,1-.8,1.5-1.2.6-.6,1.4-.9,2.2-1.3Z"/>
  <ellipse id="Kaffebønneecclipse1" class="st6" cx="287.4" cy="449.8" rx="18.5" ry="28.8" transform="translate(-181.5 704.8) rotate(-86)"/>
  <path class="st5" d="M315.4,451.8c-5-5.6-12.2-8.8-19.5-10.7-4.6-1.2-9.4-1.8-14.2-1.3s-9.6,2.2-13.2,5.4c-.8.7-1.7,1.8-1.4,2.8.3,1,1.5,1.5,2.6,1.3s2-.9,2.9-1.4c6.5-4,14.8-4.1,22-2,7.2,2.1,13.5,6.2,19.7,10.2.2-.6.2-1.2.3-1.9,0-.8.5-1.6.8-2.4Z"/>
  <ellipse id="Kaffebønneecclipse2" class="st6" cx="426.7" cy="397.8" rx="28.8" ry="18.5" transform="translate(-129.6 573.6) rotate(-60.5)"/>
  <path class="st5" d="M412.8,422.2c7.2-2.1,13.2-7.2,18-13,3-3.6,5.7-7.7,7.3-12.2s2.1-9.6.8-14.3c-.3-1.1-.9-2.3-1.9-2.5-1-.2-2,.7-2.3,1.8s0,2.2,0,3.2c.8,7.6-2.6,15.2-7.6,20.7-5,5.6-11.4,9.5-17.7,13.4.5.5,1,.7,1.6,1.1.7.4,1.2,1.1,1.8,1.7Z"/>
  <g id="kaffe">
    <path class="st2" d="M156.7,219.8c.2-1.9.6-3.2,2-4.1,4.9-2.8,20-4.5,40.9-5.2,10-.3,21.7-.4,31-.3,15.8.5,31.7-.1,48-.9,18.5-.9,46.9-1.8,62.7-3.9,12.9-1.8,25.7-5.1,38.8-8.8,5.1-1.4,10-3,14.9-4.3,4.1-1.2,6-1.1,6.6,3.6,2.2,13.4-1.3,40.8-6.4,57.8-7.6,27.9-23.4,56.3-49.2,70.9-14,7.6-29.4,8.4-45,11-12.4,1.8-25.6,3.2-38.2,4-11.9.5-23.2,1.2-34.6-2.6-7.8-2.6-15.1-6.4-21.6-10.6-4.2-2.7-6.3-3.9-9.7-7.6-3.9-4.4-6.8-8.9-10.2-14.1-9.4-15.3-18.7-30.3-23.4-47.9-2.9-11.1-7-26.1-6.7-36.9h0Z"/>
    <path class="st7" d="M377.5,217c.6,33.3-14.9,64.8-32.6,93"/>
  </g>
</svg>