<?xml version="1.0" encoding="UTF-8"?>
<svg id="Lag_1" data-name="Lag 1" xmlns="http://www.w3.org/2000/svg" viewBox="0 0 233.54 227.58">
  <defs>
    <style>
      .cls-1 {
        fill: #25180e;
        stroke: #1c130d;
      }

      .cls-1, .cls-2, .cls-3, .cls-4 {
        stroke-miterlimit: 10;
      }

      .cls-2 {
        fill: #5f4477;
        stroke-width: 9px;
      }

      .cls-2, .cls-4 {
        stroke: #ac3022;
      }

      .cls-3 {
        fill: #432919;
        stroke: #25180e;
        stroke-width: 2px;
      }

      .cls-4 {
        fill: none;
        stroke-width: 11px;
      }
    </style>
  </defs>
  <ellipse class="cls-2" cx="116.77" cy="113.79" rx="112.27" ry="109.29"/>
  <g>
    <path id="Kaffebønneecclipse2" class="cls-3" d="M204.72,103.79c7.49,34.31-27.62,66.61-78.4,72.13-50.79,5.52-98.02-17.82-105.51-52.13-7.49-34.31,27.62-66.61,78.4-72.13,50.79-5.52,98.02,17.82,105.51,52.13Z"/>
    <path class="cls-1" d="M202.66,104.35c-21.02-15.57-46.64-22.17-71.49-24.07-15.53-1.19-31.21-.65-45.73,3.77-14.52,4.42-27.87,12.96-36.32,25.72-1.93,2.91-3.6,6.8-1.78,10.12,1.79,3.25,6.18,4.06,9.33,2.8,3.15-1.26,5.42-3.98,7.79-6.42,16.71-17.19,42.58-22.37,67.13-19.56,24.56,2.81,48.35,12.7,71.76,22.48.08-2.19-.44-4.25-.89-6.44-.59-2.82.01-5.58.19-8.39Z"/>
  </g>
  <path class="cls-4" d="M28.2,50.12c59.04,44.51,118.09,89.01,177.13,133.52"/>
  <path class="cls-4" d="M196.43,39.72c-53.11,51.44-106.22,102.89-159.32,154.33"/>
</svg>