<?xml version="1.0" encoding="UTF-8"?>
<svg id="Lag_1" xmlns="http://www.w3.org/2000/svg" version="1.1" viewBox="0 0 101.16 49.58">
  <!-- Generator: Adobe Illustrator 30.0.0, SVG Export Plug-In . SVG Version: 2.1.1 Build 123)  -->
  <defs>
    <style>
      .st0 {
        letter-spacing: -.02em;
      }

      .st0, .st1, .st2 {
        isolation: isolate;
      }

      .st0, .st2 {
        fill: #1d1d1b;
        font-family: SourceSansPro-Black, 'Source Sans Pro';
        font-size: 30px;
        font-weight: 800;
      }

      .st3 {
        fill: none;
        stroke: #1d1d1b;
        stroke-linecap: round;
        stroke-miterlimit: 10;
      }

      .st4 {
        fill: #c11818;
      }
    </style>
  </defs>
  <g class="st1">
    <text class="st2" transform="translate(-285.2 37.58)"><tspan x="0" y="0">K</tspan></text>
    <text class="st2" transform="translate(-266.66 37.58)"><tspan x="0" y="0">AFFE MINI</tspan></text>
    <text class="st0" transform="translate(-131.9 37.58)"><tspan x="0" y="0">S</tspan></text>
    <text class="st2" transform="translate(-115.58 37.58)"><tspan x="0" y="0">TERIET</tspan></text>
  </g>
  <g id="logo_bonne1">
    <ellipse id="Ellipse_bonne" class="st4" cx="-60.36" cy="7.88" rx="6.35" ry="9.16" transform="translate(-23.37 -40.47) rotate(-45.14)"/>
    <path id="streg_bonne" class="st3" d="M-65.56,1.21s.4.08,1.35.51c.95.43,1.66,1.35,1.83,2.38.15.9-.09,1.88.3,2.71.36.76,1.17,1.21,1.98,1.46s1.66.37,2.42.74c.75.36,1.38.96,1.77,1.69.77,1.41.69,2.36.53,3.96"/>
  </g>
  <g id="Hele_koppen">
    <path class="st4" d="M-128.8,6.2c.84-.06,1.72-.05,2.5.27s1.47,1.02,1.57,1.88c.09.8-.36,1.61-1,2.08s-1.46.65-2.25.67c-.64.02-1.28-.06-1.92-.13-.41-.05-.86-.11-1.16-.4s-.34-.89.03-1.08c.71.04,1.42.09,2.12.13.52.03,1.06.06,1.53-.17s.83-.79.65-1.28c-.21-.58-.96-.7-1.57-.72-1.03-.03-2.06-.05-3.1-.04-.03-.79-.09-.9.57-1.08.58-.16,1.42-.07,2.03-.11v-.02Z"/>
    <g>
      <path class="st4" d="M-144.08,3.76h7.18l.1,13.18h-1.36l-3.2-1.4s-2.22-1.42-2.72-4.37c-.25-1.46,0-7.4,0-7.4h0Z"/>
      <path class="st4" d="M-129.76,3.76h-7.18l-.1,13.18h1.36l3.2-1.4s2.22-1.42,2.72-4.37c.25-1.46,0-7.4,0-7.4h0Z"/>
    </g>
  </g>
  <g id="logo_bonne1-2">
    <ellipse id="Ellipse_bonne-2" class="st4" cx="-168.9" cy="7.88" rx="6.35" ry="9.16" transform="translate(-55.35 -117.4) rotate(-45.14)"/>
    <path id="streg_bonne-2" class="st3" d="M-174.09,1.21s.4.08,1.35.51c.95.43,1.66,1.35,1.83,2.38.15.9-.09,1.88.3,2.71.36.76,1.17,1.21,1.98,1.46s1.66.37,2.42.74c.75.36,1.38.96,1.77,1.69.77,1.41.69,2.36.53,3.96"/>
  </g>
  <g id="logo_bonne11" data-name="logo_bonne1">
    <ellipse id="Ellipse_bonne1" data-name="Ellipse_bonne" class="st4" cx="84.84" cy="22.1" rx="12.05" ry="17.39" transform="translate(9.33 66.65) rotate(-45.14)"/>
    <path id="streg_bonne1" data-name="streg_bonne" class="st3" d="M74.98,9.44s.76.15,2.56.97c1.8.82,3.15,2.56,3.47,4.52.28,1.71-.17,3.57.57,5.14.68,1.44,2.22,2.3,3.76,2.77s3.15.7,4.59,1.4c1.42.68,2.62,1.82,3.36,3.21,1.46,2.68,1.31,4.48,1.01,7.52"/>
  </g>
  <g id="logo_bonne12" data-name="logo_bonne1">
    <ellipse id="Ellipse_bonne2" data-name="Ellipse_bonne" class="st4" cx="16.63" cy="22" rx="12.05" ry="17.39" transform="translate(-10.69 18.27) rotate(-45.14)"/>
    <path id="streg_bonne2" data-name="streg_bonne" class="st3" d="M6.77,9.33s.76.15,2.56.97c1.8.82,3.15,2.56,3.47,4.52.28,1.71-.17,3.57.57,5.14.68,1.44,2.22,2.3,3.76,2.77s3.15.7,4.59,1.4c1.42.68,2.62,1.82,3.36,3.21,1.46,2.68,1.31,4.48,1.01,7.52"/>
  </g>
  <g id="Hele_koppen1" data-name="Hele_koppen">
    <path class="st4" d="M61.33,14.43c1.57-.11,3.22-.09,4.68.51s2.75,1.91,2.94,3.52c.17,1.5-.67,3.02-1.87,3.9s-2.74,1.22-4.22,1.26c-1.2.04-2.4-.11-3.6-.24-.77-.09-1.61-.21-2.17-.75s-.64-1.67.06-2.02c1.33.07,2.66.17,3.97.24.97.06,1.99.11,2.87-.32s1.55-1.48,1.22-2.4c-.39-1.09-1.8-1.31-2.94-1.35-1.93-.06-3.86-.09-5.81-.07-.06-1.48-.17-1.69,1.07-2.02,1.09-.3,2.66-.13,3.8-.21v-.04Z"/>
    <g>
      <path class="st4" d="M32.71,9.86h13.45l.19,24.69h-2.55l-5.99-2.62s-4.16-2.66-5.1-8.19c-.47-2.74,0-13.86,0-13.86v-.02Z"/>
      <path class="st4" d="M59.53,9.86h-13.45l-.19,24.69h2.55l5.99-2.62s4.16-2.66,5.1-8.19c.47-2.74,0-13.86,0-13.86v-.02Z"/>
    </g>
  </g>
</svg>