<?xml version="1.0" encoding="UTF-8"?>
<svg id="Lag_1" data-name="Lag 1" xmlns="http://www.w3.org/2000/svg" viewBox="0 0 262.32 37.94">
  <defs>
    <style>
      .cls-1 {
        fill: #FFFFFF;
      }

      .cls-2 {
        fill: none;
        stroke: #A5161B;
        stroke-linecap: round;
        stroke-miterlimit: 10;
      }

      .cls-3 {
        fill: #FFFFFF;
      }
    </style>
  </defs>
  <g>
    <path class="cls-1" d="M0,18.08h5.16v7.26h.12l4.92-7.26h5.64l-5.82,7.92,6.96,11.58h-5.64l-4.32-7.5-1.86,2.64v4.86H0v-19.5Z"/>
    <path class="cls-1" d="M22.02,18.08h6.24l5.94,19.5h-5.46l-.96-4.14h-5.46l-.96,4.14h-5.28l5.94-19.5ZM23.25,29.45h3.6l-.33-1.35c-.48-1.86-.96-4.23-1.44-6.18h-.12c-.42,1.98-.9,4.32-1.38,6.18l-.33,1.35Z"/>
    <path class="cls-1" d="M36.06,18.08h12.72v4.32h-7.56v3.72h6.48v4.32h-6.48v7.14h-5.16v-19.5Z"/>
    <path class="cls-1" d="M52.14,18.08h12.72v4.32h-7.56v3.72h6.48v4.32h-6.48v7.14h-5.16v-19.5Z"/>
    <path class="cls-1" d="M68.22,18.08h12.6v4.32h-7.44v3.06h6.36v4.32h-6.36v3.48h7.74v4.32h-12.9v-19.5Z"/>
    <path class="cls-1" d="M90.9,18.08h5.52l2.94,7.98c.36,1.08.66,2.28,1.02,3.42h.12c.36-1.14.66-2.34,1.02-3.42l2.82-7.98h5.52v19.5h-4.68v-5.76c0-1.98.42-5.58.66-7.56h-.12l-1.62,5.28-2.4,6.45h-2.76l-2.4-6.45-1.56-5.28h-.12c.24,1.98.66,5.58.66,7.56v5.76h-4.62v-19.5Z"/>
    <path class="cls-1" d="M114.18,18.08h5.16v19.5h-5.16v-19.5Z"/>
    <path class="cls-1" d="M123.66,18.08h5.28l4.32,8.7c.66,1.32,1.26,2.88,1.86,4.38h.12c-.24-2.1-.66-5.04-.66-7.44v-5.64h4.92v19.5h-5.28l-4.32-8.7c-.66-1.32-1.26-2.88-1.86-4.38h-.12c.24,2.22.66,5.04.66,7.44v5.64h-4.92v-19.5Z"/>
    <path class="cls-1" d="M143.82,18.08h5.16v19.5h-5.16v-19.5Z"/>
    <path class="cls-1" d="M152.1,35.12l2.7-3.36c1.38,1.14,3.24,1.74,4.8,1.74s2.22-.51,2.22-1.38c0-.93-.99-1.23-2.64-1.89l-2.43-1.02c-2.1-.84-3.93-2.61-3.93-5.43,0-3.33,3-6.06,7.26-6.06,2.34,0,4.71.84,6.48,2.46l-2.7,3.36c-1.32-.9-2.64-1.38-3.78-1.38-1.26,0-2.04.45-2.04,1.32,0,.93,1.11,1.26,2.88,1.95l2.37.93c2.43.96,3.81,2.64,3.81,5.34,0,3.3-2.76,6.24-7.62,6.24-2.58,0-5.28-.84-7.38-2.82Z"/>
    <path class="cls-1" d="M173.34,22.4h-5.16v-4.32h15.48v4.32h-5.16v15.18h-5.16v-15.18Z"/>
    <path class="cls-1" d="M186.54,18.08h12.6v4.32h-7.44v3.06h6.36v4.32h-6.36v3.48h7.74v4.32h-12.9v-19.5Z"/>
    <path class="cls-1" d="M203.22,18.08h7.38c4.2,0,7.8,1.44,7.8,6.3,0,2.79-1.26,4.62-3.15,5.64l4.23,7.56h-5.76l-3.36-6.54h-1.98v6.54h-5.16v-19.5ZM210.24,26.96c2.04,0,3.12-.9,3.12-2.58s-1.08-2.22-3.12-2.22h-1.86v4.8h1.86Z"/>
    <path class="cls-1" d="M222.12,18.08h5.16v19.5h-5.16v-19.5Z"/>
    <path class="cls-1" d="M231.6,18.08h12.6v4.32h-7.44v3.06h6.36v4.32h-6.36v3.48h7.74v4.32h-12.9v-19.5Z"/>
    <path class="cls-1" d="M252,22.4h-5.16v-4.32h15.48v4.32h-5.16v15.18h-5.16v-15.18Z"/>
  </g>
  <g id="logo_bonne1">
    <ellipse id="Ellipse_bonne" class="cls-3" cx="222.67" cy="7.88" rx="6.35" ry="9.16" transform="translate(60.02 160.16) rotate(-45.14)"/>
    <path id="streg_bonne" class="cls-2" d="M217.48,1.21s.4.08,1.35.51,1.66,1.35,1.83,2.38c.15.9-.09,1.88.3,2.71.36.76,1.17,1.21,1.98,1.46s1.66.37,2.42.74c.75.36,1.38.96,1.77,1.69.77,1.41.69,2.36.53,3.96"/>
  </g>
  <g id="Hele_koppen">
    <path class="cls-3" d="M154.24,6.2c.84-.06,1.72-.05,2.5.27s1.47,1.02,1.57,1.88c.09.8-.36,1.61-1,2.08s-1.46.65-2.25.67c-.64.02-1.28-.06-1.92-.13-.41-.05-.86-.11-1.16-.4s-.34-.89.03-1.08c.71.04,1.42.09,2.12.13.52.03,1.06.06,1.53-.17s.83-.79.65-1.28c-.21-.58-.96-.7-1.57-.72-1.03-.03-2.06-.05-3.1-.04-.03-.79-.09-.9.57-1.08.58-.16,1.42-.07,2.03-.11Z"/>
    <g>
      <path class="cls-3" d="M138.96,3.76h7.18l.1,13.18h-1.36l-3.2-1.4s-2.22-1.42-2.72-4.37c-.25-1.46,0-7.4,0-7.4Z"/>
      <path class="cls-3" d="M153.28,3.76h-7.18s-.1,13.18-.1,13.18h1.36s3.2-1.4,3.2-1.4c0,0,2.22-1.42,2.72-4.37.25-1.46,0-7.4,0-7.4Z"/>
    </g>
  </g>
  <g id="logo_bonne1-2" data-name="logo_bonne1">
    <ellipse id="Ellipse_bonne-2" data-name="Ellipse_bonne" class="cls-3" cx="114.14" cy="7.88" rx="6.35" ry="9.16" transform="translate(28.05 83.23) rotate(-45.14)"/>
    <path id="streg_bonne-2" data-name="streg_bonne" class="cls-2" d="M108.95,1.21s.4.08,1.35.51,1.66,1.35,1.83,2.38c.15.9-.09,1.88.3,2.71.36.76,1.17,1.21,1.98,1.46s1.66.37,2.42.74c.75.36,1.38.96,1.77,1.69.77,1.41.69,2.36.53,3.96"/>
  </g>
</svg>